<?xml version="1.0" encoding="UTF-8" standalone="no"?>
<svg
   height="24"
   width="28"
   viewBox="0 0 28 24"
   version="1.1"
   id="svg4"
   sodipodi:docname="scholar.svg"
   inkscape:version="1.1.2 (0a00cf5339, 2022-02-04)"
   xmlns:inkscape="http://www.inkscape.org/namespaces/inkscape"
   xmlns:sodipodi="http://sodipodi.sourceforge.net/DTD/sodipodi-0.dtd"
   xmlns="http://www.w3.org/2000/svg"
   xmlns:svg="http://www.w3.org/2000/svg">
  <defs
     id="defs8" />
  <sodipodi:namedview
     id="namedview6"
     pagecolor="#ffffff"
     bordercolor="#666666"
     borderopacity="1.0"
     inkscape:pageshadow="2"
     inkscape:pageopacity="0.0"
     inkscape:pagecheckerboard="0"
     showgrid="false"
     inkscape:zoom="1.9897436"
     inkscape:cx="34.677835"
     inkscape:cy="176.40464"
     inkscape:window-width="2490"
     inkscape:window-height="1370"
     inkscape:window-x="70"
     inkscape:window-y="33"
     inkscape:window-maximized="1"
     inkscape:current-layer="svg4"
     fit-margin-top="0"
     fit-margin-left="0"
     fit-margin-right="0"
     fit-margin-bottom="0" />
  <path
     d="m 14.255607,6.6377519 c -0.371388,-0.4146881 -0.801702,-0.621131 -1.288279,-0.621131 -0.550694,0 -0.973343,0.1981865 -1.26792,0.5936985 -0.294576,0.3943022 -0.441932,0.872031 -0.441932,1.433268 0,0.4780247 0.08066,0.964683 0.242051,1.4609155 0.160803,0.4960171 0.423913,0.9388101 0.792773,1.3291051 0.367569,0.391263 0.795328,0.586518 1.281313,0.586518 0.541766,0 0.964979,-0.181566 1.268512,-0.544509 0.302242,-0.362458 0.453927,-0.820017 0.453927,-1.3711141 0,-0.4693649 -0.08006,-0.960864 -0.240787,-1.4746856 C 14.895322,7.5152963 14.628286,7.0510684 14.255607,6.6377519 Z M 24.503775,1.4957165 C 23.638332,0.62938717 22.596138,0.19711 21.376307,0.19711 H 6.6226999 c -1.2198323,0 -2.2610303,0.43227717 -3.1274674,1.2986065 C 2.6289032,2.3601901 2.196626,3.4033516 2.196626,4.6231839 V 19.376791 c 0,1.219831 0.4322772,2.26302 1.2986065,3.129349 0.8664371,0.862591 1.9095177,1.29675 3.1274674,1.29675 H 21.376307 c 1.219831,0 2.262025,-0.434159 3.127468,-1.298605 0.866436,-0.866437 1.299599,-1.907635 1.299599,-3.127468 V 4.6232108 c 0,-1.2198322 -0.433271,-2.2630207 -1.299599,-3.1274674 z M 19.64865,6.3154199 v 5.2730391 c 0,0.244122 -0.199773,0.443976 -0.443977,0.443976 h -0.163465 c -0.24423,0 -0.443976,-0.199773 -0.443976,-0.443976 V 6.3154199 c 0,-0.2167704 -0.03147,-0.3977445 0.271474,-0.4358272 V 5.1780198 l -2.332167,1.912745 c 0.02695,0.04997 0.05253,0.081921 0.07681,0.1238227 0.204963,0.3627547 0.309341,0.813912 0.309341,1.3653053 0,0.4226489 -0.07044,0.8022934 -0.213247,1.1376154 -0.142138,0.3352148 -0.315044,0.6090288 -0.51678,0.8199088 -0.201737,0.211661 -0.404065,0.405141 -0.606366,0.57923 -0.202328,0.174492 -0.375234,0.356434 -0.516861,0.545288 -0.14273,0.188263 -0.213731,0.382899 -0.213731,0.584635 0,0.202033 0.09217,0.407292 0.275992,0.614139 0.183153,0.207438 0.408476,0.408475 0.67492,0.607065 0.26693,0.197218 0.533294,0.416141 0.799739,0.654373 0.267036,0.237937 0.491096,0.544024 0.674248,0.915708 0.184523,0.373082 0.276585,0.783817 0.276585,1.23527 0,0.595554 -0.151875,1.133366 -0.454601,1.61209 -0.30364,0.476654 -0.699233,0.856997 -1.185299,1.135921 -0.487357,0.280806 -1.008548,0.492171 -1.564379,0.634901 -0.556988,0.141439 -1.109672,0.212549 -1.661657,0.212549 -0.348393,0 -0.699906,-0.02684 -1.053408,-0.08203 C 11.28308,19.731477 10.927694,19.634198 10.569781,19.49709 10.211168,19.359093 9.8935692,19.189631 9.618276,18.986119 9.3422836,18.784678 9.120107,18.524715 8.9497297,18.208112 8.7793791,17.8914 8.6947956,17.53545 8.6947956,17.140045 c 0,-0.469068 0.1306272,-0.904196 0.3925539,-1.309821 0.2619266,-0.402665 0.6089208,-0.738956 1.0405255,-1.005321 0.753023,-0.468477 1.934503,-0.757944 3.542451,-0.867324 -0.367568,-0.459522 -0.551985,-0.892014 -0.551985,-1.296751 0,-0.230245 0.06019,-0.47703 0.179307,-0.743475 -0.192082,0.02684 -0.389891,0.04201 -0.591709,0.04201 -0.863774,0 -1.593183,-0.280807 -2.18551,-0.846266 C 9.9281288,10.548633 9.6322611,9.8420303 9.6322611,8.9877767 c 0,-0.089317 0.00256,-0.1679839 0.00904,-0.2551493 H 6.1309317 L 11.424034,4.131362 h 8.765708 L 19.379678,4.7637083 V 5.879781 c 0.300789,0.038648 0.268999,0.2194332 0.268999,0.4356121 z m -5.344337,8.1925031 c -0.101124,-0.01829 -0.243235,-0.02853 -0.426387,-0.02853 -0.395109,0 -0.783817,0.03491 -1.165425,0.104647 -0.381634,0.06785 -0.758132,0.182453 -1.129546,0.344144 -0.372787,0.160722 -0.673657,0.397071 -0.902933,0.70956 -0.230541,0.312086 -0.345139,0.679654 -0.345139,1.102599 0,0.403069 0.101124,0.76265 0.303533,1.075838 0.201736,0.311198 0.468074,0.554836 0.799146,0.729329 0.331073,0.174787 0.678175,0.306787 1.040526,0.393522 0.36305,0.08617 0.732556,0.130922 1.10908,0.130922 0.744658,0 1.385745,-0.167688 1.923584,-0.503009 0.536628,-0.335214 0.805547,-0.852856 0.805547,-1.551578 0,-0.146952 -0.02047,-0.291618 -0.06089,-0.432869 -0.0422,-0.14281 -0.08391,-0.265073 -0.124818,-0.366574 -0.04101,-0.09964 -0.119116,-0.21962 -0.234386,-0.357913 -0.114598,-0.138696 -0.202329,-0.241164 -0.261335,-0.309342 -0.06019,-0.07044 -0.172825,-0.170942 -0.338738,-0.303829 -0.164541,-0.133478 -0.269592,-0.21669 -0.316308,-0.247456 -0.04612,-0.03235 -0.165832,-0.119788 -0.358613,-0.261631 -0.192673,-0.142999 -0.298315,-0.218842 -0.316899,-0.227798 z"
     id="path2"
     style="stroke-width:0.0134473" />
</svg>
