<?xml version="1.0" encoding="UTF-8" standalone="no"?>
<svg
   enable-background="new 0 0 56.693 56.693"
   height="24"
   id="Layer_1"
   version="1.1"
   viewBox="0 0 28 24"
   width="28"
   xml:space="preserve"
   sodipodi:docname="twitter.svg"
   inkscape:version="1.1.2 (0a00cf5339, 2022-02-04)"
   xmlns:inkscape="http://www.inkscape.org/namespaces/inkscape"
   xmlns:sodipodi="http://sodipodi.sourceforge.net/DTD/sodipodi-0.dtd"
   xmlns="http://www.w3.org/2000/svg"
   xmlns:svg="http://www.w3.org/2000/svg"><defs
     id="defs7" /><sodipodi:namedview
     id="namedview5"
     pagecolor="#ffffff"
     bordercolor="#666666"
     borderopacity="1.0"
     inkscape:pageshadow="2"
     inkscape:pageopacity="0.0"
     inkscape:pagecheckerboard="0"
     showgrid="false"
     width="28px"
     inkscape:zoom="15.398726"
     inkscape:cx="17.728739"
     inkscape:cy="28.31403"
     inkscape:window-width="2490"
     inkscape:window-height="1370"
     inkscape:window-x="70"
     inkscape:window-y="33"
     inkscape:window-maximized="1"
     inkscape:current-layer="Layer_1" /><path
     d="m 14.000482,0.13400927 c -6.5536662,0 -11.8664727,5.31377033 -11.8664727,11.86647273 0,6.553666 5.3128065,11.865509 11.8664727,11.865509 6.553666,0 11.865509,-5.311843 11.865509,-11.865509 0,-6.5527024 -5.312325,-11.86647273 -11.865509,-11.86647273 z m 5.977329,9.47390263 c 0.0063,0.128182 0.0087,0.2568459 0.0087,0.3869554 0,3.9519567 -3.00794,8.5082007 -8.508201,8.5082007 -1.6885326,0 -3.2609306,-0.494898 -4.5841928,-1.34302 0.2341971,0.02747 0.4717675,0.04144 0.713193,0.04144 1.401328,0 2.6908578,-0.478033 3.7139048,-1.279893 -1.308324,-0.02458 -2.4123274,-0.889564 -2.7930183,-2.077416 0.1821534,0.03566 0.3696075,0.05349 0.5623624,0.05349 0.2727481,0 0.5368223,-0.03566 0.7878856,-0.10457 C 8.509859,13.518427 7.4791022,12.30889 7.4791022,10.861301 c 0,-0.01301 0,-0.02554 4.819e-4,-0.03855 0.4028577,0.224077 0.8640238,0.358524 1.354585,0.374426 C 8.031345,10.659872 7.5036785,9.7457316 7.5036785,8.7077466 c 0,-0.5479058 0.1474575,-1.0620795 0.4047852,-1.5034881 1.4750568,1.8090046 3.6787273,2.9997475 6.1643013,3.1240745 -0.05108,-0.218295 -0.07758,-0.4471911 -0.07758,-0.6813883 0,-1.6509456 1.338683,-2.9901101 2.990592,-2.9901101 0.860169,0 1.636971,0.3633429 2.182467,0.944017 0.681389,-0.1334827 1.321335,-0.3831003 1.899118,-0.7257221 -0.224078,0.6987364 -0.697773,1.2847113 -1.315552,1.6543188 0.605732,-0.072283 1.182069,-0.2332334 1.717928,-0.4708038 -0.399967,0.6009133 -0.907394,1.1276161 -1.491923,1.5492674 z"
     id="path2"
     style="stroke-width:0.481887" /></svg>
